<svg width="226" height="92" viewBox="0 0 226 92" fill="none" xmlns="http://www.w3.org/2000/svg">
<rect x="0.5" y="0.5" width="225" height="91" rx="3.5" stroke="#AFB1B8"/>
<path d="M98.3454 65.7946C98.3604 65.795 98.3752 65.7982 98.3889 65.8041C98.4026 65.81 98.4149 65.8184 98.4251 65.8289L98.6309 66.0446C98.4712 66.2191 98.2738 66.3588 98.0522 66.4539C97.7927 66.5577 97.513 66.6078 97.2317 66.6009C96.9673 66.6061 96.7046 66.5594 96.46 66.4637C96.2394 66.3758 96.0412 66.2437 95.8787 66.0764C95.713 65.9029 95.5853 65.6996 95.5032 65.4784C95.4133 65.2318 95.3689 64.9723 95.372 64.7113C95.3684 64.4486 95.4164 64.1875 95.5135 63.9417C95.6033 63.7191 95.7389 63.5158 95.9122 63.3436C96.0878 63.1749 96.2979 63.0423 96.5295 62.9539C96.7828 62.8604 97.0526 62.8138 97.3243 62.8167C97.5766 62.8108 97.8277 62.8534 98.0625 62.9417C98.2662 63.0259 98.4532 63.1428 98.6155 63.2873L98.4432 63.5177C98.4312 63.5339 98.4164 63.548 98.3994 63.5593C98.3791 63.5726 98.3545 63.5787 98.33 63.5765C98.3033 63.5747 98.2775 63.5663 98.2554 63.552L98.1628 63.4907L98.0342 63.4123C97.9787 63.3832 97.9211 63.3578 97.8619 63.3363C97.7856 63.3103 97.7073 63.2898 97.6278 63.275C97.5268 63.2573 97.4243 63.2491 97.3217 63.2505C97.1261 63.2482 96.9319 63.2832 96.7507 63.3534C96.5817 63.4185 96.4291 63.5171 96.3031 63.6427C96.1749 63.7762 96.076 63.9329 96.0125 64.1034C95.94 64.2985 95.9043 64.5043 95.907 64.7113C95.9039 64.9214 95.9396 65.1305 96.0125 65.3289C96.0752 65.498 96.1723 65.6537 96.298 65.7872C96.4158 65.9117 96.5618 66.0089 96.725 66.0715C96.8929 66.1379 97.0731 66.1712 97.2548 66.1696C97.3598 66.1711 97.4648 66.1646 97.5686 66.15C97.7382 66.1302 97.9009 66.0741 98.0445 65.9858C98.1165 65.9405 98.1844 65.8897 98.2477 65.8338C98.2741 65.8098 98.3089 65.7958 98.3454 65.7946Z" fill="#AFB1B8"/>
<path d="M104.287 64.7108C104.29 64.9709 104.243 65.2292 104.148 65.473C104.064 65.6941 103.932 65.8958 103.761 66.0648C103.589 66.2338 103.382 66.3662 103.153 66.4533C102.649 66.6363 102.093 66.6363 101.589 66.4533C101.361 66.3648 101.155 66.2321 100.985 66.0636C100.813 65.8916 100.68 65.6882 100.594 65.4657C100.408 64.972 100.408 64.4325 100.594 63.9388C100.681 63.7162 100.814 63.5122 100.985 63.3384C101.157 63.1752 101.363 63.0476 101.589 62.9635C102.092 62.7772 102.65 62.7772 103.153 62.9635C103.381 63.0519 103.588 63.1846 103.76 63.3531C103.929 63.5235 104.061 63.7243 104.148 63.9437C104.244 64.1892 104.291 64.4492 104.287 64.7108ZM103.747 64.7108C103.751 64.5028 103.718 64.2956 103.649 64.0981C103.592 63.929 103.498 63.7729 103.374 63.6399C103.253 63.5139 103.105 63.4152 102.939 63.3507C102.573 63.2167 102.168 63.2167 101.802 63.3507C101.637 63.4152 101.488 63.5139 101.368 63.6399C101.242 63.7722 101.147 63.9284 101.09 64.0981C100.959 64.4971 100.959 64.9246 101.09 65.3235C101.148 65.4931 101.243 65.6492 101.368 65.7818C101.489 65.907 101.637 66.0049 101.802 66.0685C102.169 66.1991 102.573 66.1991 102.939 66.0685C103.105 66.0049 103.253 65.907 103.374 65.7818C103.497 65.6484 103.591 65.4925 103.649 65.3235C103.718 65.1261 103.751 64.9189 103.747 64.7108Z" fill="#AFB1B8"/>
<path d="M108.341 65.3532L108.395 65.4904C108.415 65.4414 108.433 65.3973 108.454 65.3532C108.474 65.3071 108.496 65.2621 108.521 65.2184L109.835 62.942C109.861 62.9028 109.884 62.8783 109.91 62.8709C109.945 62.8608 109.981 62.8566 110.018 62.8587H110.406V66.5613H109.946V63.8388C109.946 63.8045 109.946 63.7653 109.946 63.7237C109.943 63.6812 109.943 63.6387 109.946 63.5962L108.624 65.9046C108.607 65.9391 108.58 65.9684 108.546 65.9888C108.513 66.0092 108.473 66.02 108.433 66.0197H108.359C108.319 66.0203 108.279 66.0097 108.246 65.9892C108.212 65.9687 108.185 65.9393 108.168 65.9046L106.808 63.5815C106.808 63.6256 106.808 63.6698 106.808 63.7139C106.808 63.758 106.808 63.7972 106.808 63.8315V66.5539H106.363V62.8587H106.751C106.788 62.8566 106.824 62.8608 106.859 62.8709C106.891 62.886 106.917 62.9111 106.931 62.942L108.274 65.2209C108.3 65.263 108.323 65.3073 108.341 65.3532Z" fill="#AFB1B8"/>
<path d="M113.287 65.1692V66.5562H112.773V62.8585H113.92C114.136 62.8546 114.352 62.8818 114.56 62.9394C114.727 62.9843 114.881 63.0629 115.013 63.1697C115.127 63.2699 115.215 63.394 115.27 63.5324C115.331 63.6832 115.361 63.8438 115.358 64.0053C115.36 64.1675 115.328 64.3284 115.263 64.4782C115.201 64.6201 115.106 64.7466 114.985 64.8482C114.853 64.9595 114.698 65.043 114.529 65.0933C114.329 65.1542 114.12 65.1832 113.91 65.179L113.287 65.1692ZM113.287 64.7723H113.91C114.045 64.7739 114.179 64.7549 114.308 64.7159C114.415 64.6818 114.513 64.6277 114.596 64.5566C114.674 64.4888 114.733 64.405 114.771 64.3116C114.813 64.2128 114.834 64.107 114.833 64.0004C114.839 63.8976 114.821 63.7948 114.781 63.6992C114.741 63.6035 114.68 63.5174 114.602 63.4466C114.405 63.3004 114.158 63.2296 113.91 63.2481H113.287V64.7723Z" fill="#AFB1B8"/>
<path d="M120.201 66.5612H119.795C119.754 66.5626 119.714 66.5505 119.681 66.5268C119.652 66.5038 119.629 66.4744 119.615 66.4411L119.265 65.5466H117.508L117.145 66.4411C117.132 66.4738 117.11 66.5025 117.081 66.5244C117.048 66.5495 117.007 66.5625 116.965 66.5612H116.559L118.102 62.8582H118.637L120.201 66.5612ZM117.655 65.1863H119.105L118.493 63.6791C118.446 63.5658 118.408 63.4495 118.377 63.3311L118.318 63.5247C118.3 63.5836 118.28 63.6375 118.262 63.6816L117.655 65.1863Z" fill="#AFB1B8"/>
<path d="M122.423 62.8754C122.454 62.8915 122.481 62.9141 122.501 62.9416L124.751 65.7329C124.751 65.6887 124.751 65.6446 124.751 65.603C124.751 65.5613 124.751 65.5197 124.751 65.4804V62.8582H125.212V66.5612H124.954C124.918 66.5622 124.882 66.5547 124.849 66.5391C124.817 66.5215 124.789 66.4982 124.767 66.4705L122.519 63.6817C122.521 63.7241 122.521 63.7666 122.519 63.8091C122.519 63.8508 122.519 63.8875 122.519 63.9218V66.5612H122.058V62.8582H122.331C122.363 62.8574 122.394 62.8632 122.423 62.8754Z" fill="#AFB1B8"/>
<path d="M129.003 65.0884V66.5588H128.488V65.0884L127.066 62.8584H127.526C127.566 62.8561 127.605 62.8674 127.637 62.8902C127.665 62.914 127.689 62.9422 127.707 62.9735L128.596 64.4121C128.632 64.4733 128.663 64.5297 128.689 64.5836C128.715 64.6375 128.735 64.689 128.753 64.7405L128.82 64.5812C128.845 64.5229 128.874 64.4664 128.908 64.4121L129.785 62.9637C129.803 62.9348 129.826 62.9084 129.852 62.8853C129.882 62.8599 129.922 62.8467 129.962 62.8486H130.428L129.003 65.0884Z" fill="#AFB1B8"/>
<path d="M108.086 56.6443C108.31 56.6712 108.536 56.6933 108.765 56.7129C112.236 55.2337 115.172 52.8127 117.206 49.7526C119.241 46.6924 120.283 43.1289 120.204 39.5073L116.379 35.8633C117.156 39.7191 116.793 43.705 115.328 47.3751C113.864 51.0452 111.356 54.2546 108.086 56.6443Z" fill="#AFB1B8"/>
<path d="M106.72 56.4748L106.823 56.4944C110.318 54.1132 112.982 50.788 114.471 46.9488C115.96 43.1097 116.207 38.9331 115.178 34.9592L109.73 29.769C111.933 34.0353 112.82 38.8098 112.288 43.5374C111.755 48.265 109.824 52.7514 106.72 56.4748Z" fill="#AFB1B8"/>
<path d="M125.196 43.7861C124.271 47.7654 122.023 51.3541 118.786 54.0196C117.841 54.8023 116.822 55.4996 115.741 56.1025C118.376 55.3646 120.799 54.0598 122.821 52.289C124.843 50.5181 126.412 48.3284 127.406 45.8887L125.196 43.7861Z" fill="#AFB1B8"/>
<path d="M124.329 43.2002L121.183 40.2031C121.123 43.6201 120.104 46.9594 118.231 49.8739C116.358 52.7885 113.699 55.1718 110.532 56.7764H110.548C111.253 56.7761 111.959 56.736 112.659 56.6563C115.619 55.5053 118.234 53.6742 120.27 51.3262C122.306 48.9782 123.701 46.1865 124.329 43.2002Z" fill="#AFB1B8"/>
<path d="M107.176 27.5803L103.423 24C100.068 25.2351 97.1828 27.4064 95.1446 30.2297C93.1065 33.053 92.0105 36.3968 92 39.8234V39.8234C92.0126 43.6097 93.3502 47.2838 95.8012 50.2643C98.2521 53.2448 101.676 55.3614 105.532 56.2791C108.974 52.2838 110.989 47.347 111.285 42.186C111.58 37.025 110.141 31.9086 107.176 27.5803Z" fill="#AFB1B8"/>
<path d="M133 42.649C132.986 38.1568 131.107 33.8522 127.773 30.6757C124.439 27.4992 119.921 25.709 115.206 25.6961C113.027 25.6939 110.867 26.077 108.835 26.8258L131.812 48.7166C132.598 46.7815 133.001 44.7241 133 42.649Z" fill="#AFB1B8"/>
</svg>
