<svg width="226" height="92" viewBox="0 0 226 92" fill="none" xmlns="http://www.w3.org/2000/svg">
<rect x="0.5" y="0.5" width="225" height="91" rx="3.5" stroke="#AFB1B8"/>
<path d="M87.4876 62.2777C87.7175 62.5634 87.84 62.9212 87.8336 63.2884C87.8453 63.5279 87.8032 63.767 87.7104 63.988C87.6176 64.209 87.4765 64.4062 87.2975 64.565C86.851 64.9036 86.2977 65.0692 85.7393 65.0312H83V58.6262H85.6832C86.2129 58.5909 86.7383 58.7413 87.1698 59.0518C87.3431 59.1974 87.4803 59.3815 87.5706 59.5894C87.6609 59.7974 87.7019 60.0236 87.6902 60.2502C87.706 60.6035 87.5954 60.9508 87.3786 61.2295C87.1704 61.484 86.8826 61.6604 86.5621 61.7302C86.9255 61.7968 87.2535 61.9908 87.4876 62.2777ZM84.2746 61.3109H85.4215C85.6821 61.3302 85.941 61.2547 86.1507 61.0981C86.2368 61.0198 86.3038 60.9226 86.3465 60.8141C86.3892 60.7055 86.4064 60.5886 86.3969 60.4723C86.405 60.3565 86.3874 60.2402 86.3453 60.132C86.3033 60.0238 86.2379 59.9263 86.1538 59.8465C85.9378 59.6855 85.6709 59.6088 85.4028 59.6306H84.2746V61.3109ZM86.2629 63.7671C86.3549 63.6869 86.4273 63.5864 86.4743 63.4736C86.5213 63.3607 86.5418 63.2384 86.534 63.1163C86.541 62.9927 86.5197 62.8692 86.4716 62.7553C86.4235 62.6414 86.35 62.5401 86.2567 62.4592C86.0323 62.2922 85.7563 62.2102 85.4776 62.2277H84.2746V63.9893H85.4931C85.7674 64.0052 86.0389 63.9268 86.2629 63.7671Z" fill="#AFB1B8"/>
<path d="M92.9724 65.0312L91.4797 62.5281H90.9187V65.0312H89.6348V58.6263H92.0656C92.6783 58.5833 93.284 58.7782 93.7578 59.1707C94.0976 59.5183 94.3025 59.9764 94.3357 60.4623C94.3688 60.9482 94.228 61.4301 93.9385 61.8209C93.6386 62.1659 93.229 62.3959 92.7792 62.4718L94.3686 65.0312H92.9724ZM90.9187 61.6551H91.969C92.6982 61.6551 93.0628 61.3318 93.0628 60.6851C93.0703 60.5531 93.0503 60.4209 93.0041 60.297C92.958 60.1731 92.8867 60.0602 92.7948 59.9655C92.5644 59.773 92.2676 59.6797 91.969 59.7058H90.9063L90.9187 61.6551Z" fill="#AFB1B8"/>
<path d="M99.9905 63.742H97.432L96.9801 65.0312H95.6338L97.9836 58.6982H99.4389L101.779 65.0312H100.433L99.9905 63.742ZM99.6477 62.772L98.7128 60.0686L97.7779 62.772H99.6477Z" fill="#AFB1B8"/>
<path d="M108.776 65.0312H107.501L104.644 60.6757V65.0312H103.372V58.6262H104.644L107.501 63.0067V58.6262H108.776V65.0312Z" fill="#AFB1B8"/>
<path d="M116.05 63.4981C115.786 63.9817 115.385 64.375 114.897 64.6276C114.342 64.909 113.726 65.0477 113.105 65.0313H110.836V58.6263H113.105C113.725 58.61 114.34 58.7453 114.897 59.0206C115.385 59.2674 115.787 59.6569 116.05 60.1376C116.312 60.6585 116.449 61.2341 116.449 61.8178C116.449 62.4016 116.312 62.9772 116.05 63.4981ZM114.591 63.3448C114.955 62.9193 115.155 62.377 115.155 61.8163C115.155 61.2555 114.955 60.7133 114.591 60.2878C114.152 59.9024 113.578 59.7067 112.996 59.7433H112.111V63.8892H112.996C113.578 63.9258 114.152 63.7302 114.591 63.3448Z" fill="#AFB1B8"/>
<path d="M100.789 23C100.789 23 117.24 29.236 116.891 38.2599V53.5229C116.891 53.5229 100.452 47.2838 100.795 38.2599L100.789 23Z" fill="#AFB1B8"/>
<path d="M131.547 49.9497C134.655 47.8028 138.248 46.4731 142 46.0823V41.3044C137.677 42.9771 134.01 46.0101 131.547 49.9497Z" fill="#AFB1B8"/>
<path d="M129.681 51.389C132.224 46.2477 136.633 42.2804 142 40.3031V26.5357C142 26.5357 118.571 35.4188 119.066 48.2694V70C119.066 70 120.11 69.6026 121.753 68.8579C121.753 68.1633 121.753 67.4624 121.827 66.7584C122.312 60.7925 125.137 55.2642 129.681 51.389Z" fill="#AFB1B8"/>
<path d="M127.453 59.4617C127.576 57.9546 127.85 56.4639 128.272 55.0123C125.443 58.3589 123.73 62.5117 123.373 66.8867C123.339 67.2997 123.32 67.7127 123.311 68.1382C124.642 67.4968 126.19 66.6958 127.817 65.754C127.402 63.6841 127.279 61.5659 127.453 59.4617Z" fill="#AFB1B8"/>
<path d="M128.384 59.5399C128.228 61.4437 128.326 63.3598 128.674 65.2377C135.075 61.3923 142.268 55.4504 141.991 48.2694V47.6436C137.417 48.1574 133.138 50.1647 129.812 53.3571C129.033 55.3355 128.552 57.4193 128.384 59.5399Z" fill="#AFB1B8"/>
</svg>
