<svg width="226" height="92" viewBox="0 0 226 92" fill="none" xmlns="http://www.w3.org/2000/svg">
<rect x="0.5" y="0.5" width="225" height="91" rx="3.5" stroke="#AFB1B8"/>
<path d="M85.402 37.8306H85.3992C83.1369 37.8306 81.303 39.6177 81.303 41.8223V41.8249C81.303 44.0295 83.1369 45.8167 85.3992 45.8167H85.402C87.6643 45.8167 89.4982 44.0295 89.4982 41.8249V41.8223C89.4982 39.6177 87.6643 37.8306 85.402 37.8306Z" fill="#AFB1B8"/>
<path d="M115.637 36.5545C115.63 33.4924 114.38 30.5575 112.158 28.3921C109.936 26.2266 106.925 25.007 103.783 25V25C100.64 25.0056 97.6269 26.2246 95.4041 28.3902C93.1814 30.5558 91.9298 33.4915 91.9233 36.5545V36.5545V53.4402C91.9233 53.4402 115.634 50.8667 115.637 36.5571V36.5545Z" fill="#AFB1B8"/>
<path d="M73 58.9823C73.0057 61.1129 73.8766 63.1547 75.4223 64.6615C76.968 66.1683 79.0629 67.0177 81.2492 67.0239V67.0239C83.4351 67.0177 85.5296 66.1687 87.0752 64.6625C88.6209 63.1562 89.492 61.1151 89.4985 58.9849V58.9849V47.2356C89.4985 47.2356 73 49.0276 73 58.9823ZM81.2492 61.0874C80.822 61.0874 80.4043 60.964 80.0491 60.7326C79.6938 60.5013 79.417 60.1726 79.2535 59.7879C79.09 59.4032 79.0472 58.98 79.1305 58.5716C79.2139 58.1632 79.4196 57.7881 79.7217 57.4937C80.0239 57.1993 80.4088 56.9988 80.8278 56.9176C81.2468 56.8364 81.6812 56.8781 82.0759 57.0374C82.4706 57.1967 82.808 57.4665 83.0454 57.8127C83.2827 58.1589 83.4094 58.5659 83.4094 58.9823C83.4105 59.2594 83.3554 59.534 83.2473 59.7903C83.1392 60.0466 82.9803 60.2796 82.7796 60.476C82.5789 60.6723 82.3404 60.828 82.0778 60.9343C81.8152 61.0406 81.5336 61.0953 81.2492 61.0953V61.0874Z" fill="#AFB1B8"/>
<path d="M98.0891 59.7812H96.4016V61.5244H95.5227V57.2588H98.3V57.9707H96.4016V59.0723H98.0891V59.7812ZM102.314 59.4883C102.314 59.9082 102.24 60.2764 102.091 60.5928C101.943 60.9092 101.73 61.1533 101.452 61.3252C101.177 61.4971 100.861 61.583 100.503 61.583C100.15 61.583 99.8342 61.498 99.5569 61.3281C99.2795 61.1582 99.0647 60.916 98.9124 60.6016C98.76 60.2852 98.6829 59.9219 98.6809 59.5117V59.3008C98.6809 58.8809 98.7561 58.5117 98.9065 58.1934C99.0588 57.873 99.2727 57.6279 99.5481 57.458C99.8254 57.2861 100.142 57.2002 100.497 57.2002C100.853 57.2002 101.168 57.2861 101.444 57.458C101.721 57.6279 101.935 57.873 102.085 58.1934C102.238 58.5117 102.314 58.8799 102.314 59.2979V59.4883ZM101.423 59.2949C101.423 58.8477 101.343 58.5078 101.183 58.2754C101.023 58.043 100.794 57.9268 100.497 57.9268C100.202 57.9268 99.9749 58.042 99.8147 58.2725C99.6545 58.501 99.5735 58.8369 99.5715 59.2803V59.4883C99.5715 59.9238 99.6516 60.2617 99.8118 60.502C99.9719 60.7422 100.202 60.8623 100.503 60.8623C100.798 60.8623 101.025 60.7471 101.183 60.5166C101.341 60.2842 101.421 59.9463 101.423 59.5029V59.2949ZM105.164 60.4053C105.164 60.2393 105.106 60.1123 104.989 60.0244C104.871 59.9346 104.66 59.8408 104.356 59.7432C104.051 59.6436 103.81 59.5459 103.632 59.4502C103.148 59.1885 102.906 58.8359 102.906 58.3926C102.906 58.1621 102.97 57.957 103.099 57.7773C103.23 57.5957 103.416 57.4541 103.658 57.3525C103.903 57.251 104.176 57.2002 104.479 57.2002C104.783 57.2002 105.055 57.2559 105.293 57.3672C105.531 57.4766 105.716 57.6318 105.847 57.833C105.98 58.0342 106.046 58.2627 106.046 58.5186H105.167C105.167 58.3232 105.106 58.1719 104.983 58.0645C104.86 57.9551 104.687 57.9004 104.464 57.9004C104.249 57.9004 104.082 57.9463 103.963 58.0381C103.844 58.1279 103.784 58.2471 103.784 58.3955C103.784 58.5342 103.854 58.6504 103.992 58.7441C104.133 58.8379 104.339 58.9258 104.611 59.0078C105.111 59.1582 105.475 59.3447 105.703 59.5674C105.932 59.79 106.046 60.0674 106.046 60.3994C106.046 60.7686 105.906 61.0586 105.627 61.2695C105.348 61.4785 104.972 61.583 104.499 61.583C104.171 61.583 103.872 61.5234 103.603 61.4043C103.333 61.2832 103.127 61.1182 102.985 60.9092C102.844 60.7002 102.774 60.458 102.774 60.1826H103.656C103.656 60.6533 103.937 60.8887 104.499 60.8887C104.708 60.8887 104.871 60.8467 104.989 60.7627C105.106 60.6768 105.164 60.5576 105.164 60.4053ZM109.855 57.9707H108.548V61.5244H107.669V57.9707H106.38V57.2588H109.855V57.9707ZM112.925 59.6758H111.238V60.8184H113.218V61.5244H110.359V57.2588H113.212V57.9707H111.238V58.9873H112.925V59.6758ZM115.313 59.9629H114.613V61.5244H113.734V57.2588H115.319C115.823 57.2588 116.211 57.3711 116.485 57.5957C116.758 57.8203 116.895 58.1377 116.895 58.5479C116.895 58.8389 116.831 59.082 116.704 59.2773C116.579 59.4707 116.389 59.625 116.133 59.7402L117.056 61.4834V61.5244H116.113L115.313 59.9629ZM114.613 59.251H115.322C115.542 59.251 115.713 59.1953 115.834 59.084C115.955 58.9707 116.016 58.8154 116.016 58.6182C116.016 58.417 115.958 58.2588 115.843 58.1436C115.73 58.0283 115.555 57.9707 115.319 57.9707H114.613V59.251ZM119.939 60.0215V61.5244H119.06V57.2588H120.724C121.044 57.2588 121.325 57.3174 121.568 57.4346C121.812 57.5518 121.999 57.7188 122.13 57.9355C122.261 58.1504 122.326 58.3955 122.326 58.6709C122.326 59.0889 122.183 59.4189 121.896 59.6611C121.611 59.9014 121.215 60.0215 120.709 60.0215H119.939ZM119.939 59.3096H120.724C120.956 59.3096 121.133 59.2549 121.254 59.1455C121.377 59.0361 121.439 58.8799 121.439 58.6768C121.439 58.4678 121.377 58.2988 121.254 58.1699C121.131 58.041 120.961 57.9746 120.744 57.9707H119.939V59.3096ZM125.499 59.6758H123.812V60.8184H125.792V61.5244H122.933V57.2588H125.786V57.9707H123.812V58.9873H125.499V59.6758ZM129.577 57.9707H128.271V61.5244H127.392V57.9707H126.103V57.2588H129.577V57.9707ZM132.648 59.6758H130.96V60.8184H132.941V61.5244H130.081V57.2588H132.935V57.9707H130.96V58.9873H132.648V59.6758ZM135.035 59.9629H134.335V61.5244H133.456V57.2588H135.041C135.545 57.2588 135.934 57.3711 136.207 57.5957C136.481 57.8203 136.617 58.1377 136.617 58.5479C136.617 58.8389 136.554 59.082 136.427 59.2773C136.302 59.4707 136.112 59.625 135.856 59.7402L136.779 61.4834V61.5244H135.835L135.035 59.9629ZM134.335 59.251H135.044C135.265 59.251 135.436 59.1953 135.557 59.084C135.678 58.9707 135.739 58.8154 135.739 58.6182C135.739 58.417 135.681 58.2588 135.566 58.1436C135.452 58.0283 135.278 57.9707 135.041 57.9707H134.335V59.251ZM139.5 60.4053C139.5 60.2393 139.442 60.1123 139.324 60.0244C139.207 59.9346 138.996 59.8408 138.692 59.7432C138.387 59.6436 138.146 59.5459 137.968 59.4502C137.484 59.1885 137.241 58.8359 137.241 58.3926C137.241 58.1621 137.306 57.957 137.435 57.7773C137.566 57.5957 137.752 57.4541 137.994 57.3525C138.239 57.251 138.512 57.2002 138.815 57.2002C139.119 57.2002 139.391 57.2559 139.629 57.3672C139.867 57.4766 140.052 57.6318 140.183 57.833C140.316 58.0342 140.382 58.2627 140.382 58.5186H139.503C139.503 58.3232 139.442 58.1719 139.319 58.0645C139.196 57.9551 139.023 57.9004 138.8 57.9004C138.585 57.9004 138.418 57.9463 138.299 58.0381C138.18 58.1279 138.12 58.2471 138.12 58.3955C138.12 58.5342 138.19 58.6504 138.328 58.7441C138.469 58.8379 138.675 58.9258 138.947 59.0078C139.447 59.1582 139.811 59.3447 140.039 59.5674C140.268 59.79 140.382 60.0674 140.382 60.3994C140.382 60.7686 140.242 61.0586 139.963 61.2695C139.684 61.4785 139.308 61.583 138.835 61.583C138.507 61.583 138.208 61.5234 137.939 61.4043C137.669 61.2832 137.463 61.1182 137.321 60.9092C137.18 60.7002 137.11 60.458 137.11 60.1826H137.991C137.991 60.6533 138.273 60.8887 138.835 60.8887C139.044 60.8887 139.207 60.8467 139.324 60.7627C139.442 60.6768 139.5 60.5576 139.5 60.4053Z" fill="#AFB1B8"/>
</svg>
