<svg width="226" height="92" viewBox="0 0 226 92" fill="none" xmlns="http://www.w3.org/2000/svg">
<rect x="0.5" y="0.5" width="225" height="91" rx="3.5" stroke="#AFB1B8"/>
<path d="M113.741 44.3533C113.323 43.7432 113.123 43.022 113.17 42.2962V39.3135C113.17 38.3992 113.359 37.7044 113.737 37.2291C114.116 36.7537 114.765 36.517 115.686 36.5191C116.551 36.5191 117.166 36.7213 117.529 37.1259C117.925 37.6421 118.118 38.2733 118.074 38.91V39.6109H116.526V38.9009C116.531 38.6685 116.516 38.4361 116.481 38.2061C116.459 38.0488 116.381 37.9033 116.26 37.7934C116.101 37.675 115.9 37.6175 115.699 37.6326C115.487 37.6176 115.276 37.6782 115.109 37.8025C114.974 37.9243 114.884 38.0838 114.853 38.2576C114.808 38.5011 114.788 38.7479 114.792 38.995V42.6147C114.767 42.964 114.836 43.3134 114.99 43.6312C115.067 43.7387 115.174 43.824 115.299 43.8775C115.424 43.9311 115.563 43.9508 115.699 43.9346C115.897 43.9501 116.094 43.8912 116.247 43.7708C116.373 43.6523 116.454 43.4976 116.478 43.3308C116.514 43.0907 116.53 42.8482 116.526 42.6056V41.8714H118.074V42.5419C118.117 43.2056 117.929 43.8644 117.538 44.4171C117.183 44.86 116.577 45.0815 115.686 45.0815C114.795 45.0815 114.122 44.8449 113.741 44.3533Z" fill="#AFB1B8"/>
<path d="M120.186 44.3837C119.795 43.9194 119.599 43.2428 119.599 42.3477V39.2104C119.599 38.3244 119.795 37.6538 120.186 37.1987C120.577 36.7436 121.231 36.517 122.147 36.5191C123.057 36.5191 123.708 36.7456 124.099 37.1987C124.49 37.6538 124.689 38.3244 124.689 39.2104V42.3477C124.689 43.2337 124.49 43.9134 124.092 44.3806C123.695 44.8479 123.048 45.0815 122.147 45.0815C121.247 45.0815 120.58 44.8449 120.186 44.3837ZM122.868 43.6312C123.008 43.3404 123.072 43.0219 123.054 42.7027V38.8615C123.072 38.5485 123.009 38.2361 122.871 37.9512C122.793 37.8414 122.683 37.7547 122.555 37.7011C122.427 37.6474 122.286 37.629 122.147 37.6478C122.008 37.6294 121.866 37.6481 121.738 37.7017C121.609 37.7553 121.499 37.8417 121.42 37.9512C121.279 38.2353 121.215 38.5481 121.234 38.8615V42.7209C121.214 43.0402 121.278 43.3591 121.42 43.6494C121.51 43.7473 121.621 43.8257 121.746 43.8795C121.871 43.9332 122.007 43.961 122.144 43.961C122.281 43.961 122.417 43.9332 122.542 43.8795C122.667 43.8257 122.778 43.7473 122.868 43.6494V43.6312Z" fill="#AFB1B8"/>
<path d="M126.551 36.6106H128.217L129.47 42.3992L130.752 36.6106H132.374L132.537 44.9658H131.339L131.211 39.159L129.973 44.9658H129.012L127.73 39.1378L127.611 44.9658H126.4L126.551 36.6106Z" fill="#AFB1B8"/>
<path d="M134.406 36.6106H137.002C138.497 36.6106 139.245 37.4014 139.245 38.9831C139.245 40.498 138.458 41.2544 136.883 41.2524H135.999V44.9658H134.396L134.406 36.6106ZM136.624 40.1814C136.782 40.2005 136.943 40.1867 137.095 40.1411C137.247 40.0956 137.387 40.0193 137.505 39.9175C137.689 39.6353 137.77 39.3039 137.736 38.974C137.744 38.7191 137.718 38.4642 137.659 38.2155C137.636 38.1324 137.596 38.0545 137.541 37.9863C137.486 37.918 137.417 37.8608 137.338 37.8181C137.116 37.7171 136.87 37.6711 136.624 37.6846H136.002V40.1814H136.624Z" fill="#AFB1B8"/>
<path d="M141.556 36.6106H143.277L145.043 44.9658H143.549L143.2 43.0393H141.665L141.306 44.9658H139.79L141.556 36.6106ZM143.027 42.0715L142.428 38.5644L141.828 42.0715H143.027Z" fill="#AFB1B8"/>
<path d="M146.469 36.6106H147.591L149.738 41.3768V36.6106H151.068V44.9658H150.001L147.841 39.9903V44.9658H146.466L146.469 36.6106Z" fill="#AFB1B8"/>
<path d="M154.183 41.7801L152.398 36.6223H153.901L154.991 39.9354L156.013 36.6223H157.484L155.722 41.7801V44.9658H154.183V41.7801Z" fill="#AFB1B8"/>
<path d="M116.215 48.6189V49.0558H114.907V52.4509H114.359V49.0558H113.045V48.6189H116.215Z" fill="#AFB1B8"/>
<path d="M120.314 52.4512H119.891C119.848 52.4537 119.805 52.4407 119.772 52.4148C119.74 52.3925 119.716 52.362 119.702 52.3268L119.324 51.4166H117.509L117.131 52.3268C117.121 52.3649 117.101 52.4001 117.074 52.43C117.04 52.4554 116.998 52.4683 116.955 52.4664H116.532L118.134 48.6345H118.692L120.314 52.4512ZM117.66 51.0283H119.173L118.532 49.4688C118.485 49.3509 118.445 49.2303 118.413 49.1078C118.391 49.1806 118.372 49.2504 118.352 49.3111L118.295 49.4719L117.66 51.0283Z" fill="#AFB1B8"/>
<path d="M123.077 52.0748C123.177 52.0798 123.277 52.0798 123.378 52.0748C123.464 52.0664 123.55 52.0512 123.634 52.0293C123.713 52.0111 123.79 51.9878 123.865 51.9595C123.935 51.9322 124.006 51.8988 124.08 51.8655V51.0037H123.439C123.423 51.0046 123.407 51.0023 123.392 50.9971C123.377 50.9919 123.364 50.9838 123.352 50.9734C123.342 50.9648 123.333 50.954 123.328 50.9419C123.322 50.9299 123.32 50.9167 123.32 50.9036V50.6093H124.564V52.0779C124.462 52.1466 124.355 52.2075 124.243 52.2599C124.129 52.3133 124.01 52.357 123.887 52.3904C123.756 52.4269 123.622 52.4533 123.487 52.4693C123.331 52.4856 123.175 52.4937 123.019 52.4936C122.742 52.4958 122.468 52.4473 122.211 52.351C121.971 52.2596 121.753 52.1234 121.57 51.9504C121.392 51.7757 121.251 51.5695 121.157 51.3436C121.056 51.0896 121.006 50.8199 121.009 50.5486C121.006 50.2755 121.055 50.0041 121.154 49.7475C121.246 49.5204 121.387 49.3138 121.567 49.1406C121.75 48.9682 121.968 48.833 122.208 48.7431C122.482 48.6454 122.774 48.597 123.067 48.6005C123.216 48.6003 123.365 48.6115 123.512 48.6339C123.643 48.654 123.77 48.6865 123.894 48.731C124.006 48.7709 124.113 48.8217 124.214 48.8827C124.312 48.9426 124.406 49.0095 124.493 49.083L124.339 49.3197C124.327 49.3413 124.309 49.3594 124.287 49.3722C124.265 49.3851 124.24 49.392 124.214 49.3925C124.179 49.3914 124.144 49.3809 124.115 49.3621C124.067 49.3379 124.016 49.3075 123.958 49.2711C123.89 49.2307 123.818 49.1961 123.743 49.1679C123.648 49.1317 123.549 49.1032 123.448 49.083C123.314 49.0596 123.178 49.0484 123.041 49.0496C122.83 49.0474 122.62 49.0834 122.423 49.1558C122.244 49.2235 122.084 49.3271 121.952 49.4592C121.819 49.597 121.717 49.7592 121.654 49.9356C121.51 50.3507 121.51 50.7981 121.654 51.2131C121.724 51.3933 121.833 51.5576 121.974 51.6955C122.105 51.827 122.265 51.9304 122.442 51.999C122.646 52.0652 122.862 52.091 123.077 52.0748Z" fill="#AFB1B8"/>
<path d="M128.185 52.014H129.935V52.4509H127.65V48.6189H128.198L128.185 52.014Z" fill="#AFB1B8"/>
<path d="M131.755 52.4509H131.207V48.6189H131.755V52.4509Z" fill="#AFB1B8"/>
<path d="M133.794 48.6371C133.826 48.6547 133.855 48.6785 133.877 48.7069L136.22 51.5955C136.217 51.5501 136.217 51.5045 136.22 51.459C136.22 51.4165 136.22 51.374 136.22 51.3346V48.6038H136.697V52.4512H136.422C136.381 52.4543 136.34 52.447 136.303 52.43C136.27 52.4109 136.241 52.3862 136.217 52.3571L133.877 49.4716C133.877 49.5171 133.877 49.5595 133.877 49.602C133.877 49.6445 133.877 49.684 133.877 49.7204V52.4512H133.419V48.6189H133.704C133.735 48.619 133.766 48.6252 133.794 48.6371Z" fill="#AFB1B8"/>
<path d="M140.732 48.6189V49.0406H138.79V50.3059H140.364V50.7124H138.79V52.0202H140.732V52.4419H138.226V48.6189H140.732Z" fill="#AFB1B8"/>
<path d="M83.3035 24.9539L107.638 31.4953V54.4173L83.3035 47.879V24.9539ZM81.7427 23V48.9925L109.196 56.3743V30.3848L81.7427 23Z" fill="#AFB1B8"/>
<path d="M96.4565 68.4402L69 61.0522V35.0625L96.4565 42.4474V68.4402Z" fill="#AFB1B8"/>
<path d="M82.1978 24.6596L106.215 31.1189L96.0014 40.7912L71.9806 34.3288L82.1978 24.6596ZM81.7427 23L69 35.0631L96.4565 42.4478L109.196 30.3847L81.7427 23Z" fill="#AFB1B8"/>
<path d="M98.0013 66.978L109.196 56.3774L98.0013 53.3647V66.978Z" fill="#AFB1B8"/>
</svg>
