<svg width="20" height="21" viewBox="0 0 20 21" fill="none" xmlns="http://www.w3.org/2000/svg">
<g clip-path="url(#clip0_1_341)">
<mask id="mask0_1_341" style="mask-type:luminance" maskUnits="userSpaceOnUse" x="0" y="0" width="20" height="21">
<path d="M0 0.421875H20V20.4219H0V0.421875Z" fill="white"/>
</mask>
<g mask="url(#mask0_1_341)">
<path d="M10 2.22438C12.67 2.22438 12.9867 2.23438 14.0417 2.28271C16.7517 2.40604 18.0175 3.69187 18.1408 6.38188C18.1892 7.43604 18.1983 7.75271 18.1983 10.4227C18.1983 13.0935 18.1883 13.4094 18.1408 14.4635C18.0167 17.151 16.7542 18.4394 14.0417 18.5627C12.9867 18.611 12.6717 18.621 10 18.621C7.33 18.621 7.01333 18.611 5.95917 18.5627C3.2425 18.4385 1.98333 17.1469 1.86 14.4627C1.81167 13.4085 1.80167 13.0927 1.80167 10.4219C1.80167 7.75187 1.8125 7.43604 1.86 6.38104C1.98417 3.69187 3.24667 2.40521 5.95917 2.28188C7.01417 2.23438 7.33 2.22438 10 2.22438ZM10 0.421875C7.28417 0.421875 6.94417 0.433542 5.8775 0.481875C2.24583 0.648542 0.2275 2.66354 0.0608333 6.29854C0.0116667 7.36604 0 7.70604 0 10.4219C0 13.1377 0.0116667 13.4785 0.06 14.5452C0.226667 18.1769 2.24167 20.1952 5.87667 20.3619C6.94417 20.4102 7.28417 20.4219 10 20.4219C12.7158 20.4219 13.0567 20.4102 14.1233 20.3619C17.7517 20.1952 19.775 18.1802 19.9392 14.5452C19.9883 13.4785 20 13.1377 20 10.4219C20 7.70604 19.9883 7.36604 19.94 6.29938C19.7767 2.67104 17.7592 0.649375 14.1242 0.482708C13.0567 0.433542 12.7158 0.421875 10 0.421875ZM10 5.28687C9.32566 5.28687 8.65793 5.4197 8.03492 5.67775C7.41191 5.93581 6.84584 6.31405 6.36901 6.79088C5.89218 7.26771 5.51394 7.83379 5.25588 8.4568C4.99782 9.0798 4.865 9.74754 4.865 10.4219C4.865 11.0962 4.99782 11.7639 5.25588 12.387C5.51394 13.01 5.89218 13.576 6.36901 14.0529C6.84584 14.5297 7.41191 14.9079 8.03492 15.166C8.65793 15.4241 9.32566 15.5569 10 15.5569C11.3619 15.5569 12.668 15.0159 13.631 14.0529C14.594 13.0899 15.135 11.7838 15.135 10.4219C15.135 9.05999 14.594 7.75388 13.631 6.79088C12.668 5.82788 11.3619 5.28687 10 5.28687ZM10 13.7552C9.11594 13.7552 8.2681 13.404 7.64298 12.7789C7.01786 12.1538 6.66667 11.3059 6.66667 10.4219C6.66667 9.53782 7.01786 8.68997 7.64298 8.06485C8.2681 7.43973 9.11594 7.08854 10 7.08854C10.8841 7.08854 11.7319 7.43973 12.357 8.06485C12.9821 8.68997 13.3333 9.53782 13.3333 10.4219C13.3333 11.3059 12.9821 12.1538 12.357 12.7789C11.7319 13.404 10.8841 13.7552 10 13.7552ZM15.3383 3.88438C15.1807 3.88438 15.0246 3.91542 14.879 3.97575C14.7333 4.03608 14.601 4.1245 14.4895 4.23597C14.378 4.34744 14.2896 4.47977 14.2293 4.62541C14.169 4.77105 14.1379 4.92715 14.1379 5.08479C14.1379 5.24243 14.169 5.39853 14.2293 5.54417C14.2896 5.68981 14.378 5.82214 14.4895 5.93361C14.601 6.04508 14.7333 6.13351 14.879 6.19383C15.0246 6.25416 15.1807 6.28521 15.3383 6.28521C15.6567 6.28521 15.962 6.15874 16.1872 5.93361C16.4123 5.70849 16.5387 5.40316 16.5387 5.08479C16.5387 4.76642 16.4123 4.46109 16.1872 4.23597C15.962 4.01085 15.6567 3.88438 15.3383 3.88438Z" fill="#869AB8"/>
</g>
</g>
<defs>
<clipPath id="clip0_1_341">
<rect width="20" height="20" fill="white" transform="translate(0 0.421875)"/>
</clipPath>
</defs>
</svg>
